<mxfile host="app.diagrams.net" modified="2022-11-14T06:28:12.487Z" agent="5.0 (Windows NT 10.0; Win64; x64) AppleWebKit/537.36 (KHTML, like Gecko) Chrome/107.0.0.0 Safari/537.36" etag="h7HXGhHmJb3zILtzZ5cT" version="20.5.3" type="github">
  <diagram id="-pcG-jz9nyOJaBEfYR3d" name="Page-1">
    <mxGraphModel dx="868" dy="450" grid="1" gridSize="10" guides="1" tooltips="1" connect="1" arrows="1" fold="1" page="1" pageScale="1" pageWidth="850" pageHeight="1100" math="0" shadow="0">
      <root>
        <mxCell id="0" />
        <mxCell id="1" parent="0" />
        <mxCell id="hIugXaNikR5vp4GkvQ3V-3" value="IDology Api" style="rounded=1;whiteSpace=wrap;html=1;" parent="1" vertex="1">
          <mxGeometry x="710" y="450" width="120" height="60" as="geometry" />
        </mxCell>
        <mxCell id="c3DOi_8PHYNx_k1MSMey-15" style="edgeStyle=orthogonalEdgeStyle;rounded=0;orthogonalLoop=1;jettySize=auto;html=1;entryX=0.5;entryY=0;entryDx=0;entryDy=0;" edge="1" parent="1" source="hIugXaNikR5vp4GkvQ3V-4" target="c3DOi_8PHYNx_k1MSMey-14">
          <mxGeometry relative="1" as="geometry" />
        </mxCell>
        <mxCell id="hIugXaNikR5vp4GkvQ3V-4" value="CIP" style="rounded=0;whiteSpace=wrap;html=1;" parent="1" vertex="1">
          <mxGeometry x="215" y="370" width="120" height="40" as="geometry" />
        </mxCell>
        <mxCell id="hIugXaNikR5vp4GkvQ3V-5" value="" style="endArrow=classic;html=1;rounded=0;exitX=1;exitY=0.5;exitDx=0;exitDy=0;" parent="1" source="hIugXaNikR5vp4GkvQ3V-4" target="hIugXaNikR5vp4GkvQ3V-3" edge="1">
          <mxGeometry width="50" height="50" relative="1" as="geometry">
            <mxPoint x="400" y="210" as="sourcePoint" />
            <mxPoint x="450" y="160" as="targetPoint" />
          </mxGeometry>
        </mxCell>
        <mxCell id="c3DOi_8PHYNx_k1MSMey-1" value="Tokenizer API" style="rounded=1;whiteSpace=wrap;html=1;" vertex="1" parent="1">
          <mxGeometry x="700" y="310" width="120" height="60" as="geometry" />
        </mxCell>
        <mxCell id="c3DOi_8PHYNx_k1MSMey-2" value="" style="endArrow=classic;html=1;rounded=0;entryX=0;entryY=0.383;entryDx=0;entryDy=0;entryPerimeter=0;exitX=1;exitY=0.5;exitDx=0;exitDy=0;" edge="1" parent="1" source="hIugXaNikR5vp4GkvQ3V-4" target="c3DOi_8PHYNx_k1MSMey-1">
          <mxGeometry width="50" height="50" relative="1" as="geometry">
            <mxPoint x="160" y="150" as="sourcePoint" />
            <mxPoint x="210" y="100" as="targetPoint" />
          </mxGeometry>
        </mxCell>
        <mxCell id="c3DOi_8PHYNx_k1MSMey-3" value="VIP.CAS" style="shape=cylinder3;whiteSpace=wrap;html=1;boundedLbl=1;backgroundOutline=1;size=15;" vertex="1" parent="1">
          <mxGeometry x="680" y="20" width="60" height="80" as="geometry" />
        </mxCell>
        <mxCell id="c3DOi_8PHYNx_k1MSMey-8" style="edgeStyle=orthogonalEdgeStyle;rounded=0;orthogonalLoop=1;jettySize=auto;html=1;" edge="1" parent="1" source="c3DOi_8PHYNx_k1MSMey-4" target="c3DOi_8PHYNx_k1MSMey-5">
          <mxGeometry relative="1" as="geometry" />
        </mxCell>
        <mxCell id="c3DOi_8PHYNx_k1MSMey-10" style="edgeStyle=orthogonalEdgeStyle;rounded=0;orthogonalLoop=1;jettySize=auto;html=1;" edge="1" parent="1" source="c3DOi_8PHYNx_k1MSMey-4" target="c3DOi_8PHYNx_k1MSMey-9">
          <mxGeometry relative="1" as="geometry" />
        </mxCell>
        <mxCell id="c3DOi_8PHYNx_k1MSMey-4" value="GetSecoreCard" style="shape=process;whiteSpace=wrap;html=1;backgroundOutline=1;" vertex="1" parent="1">
          <mxGeometry x="230" y="140" width="90" height="50" as="geometry" />
        </mxCell>
        <mxCell id="c3DOi_8PHYNx_k1MSMey-7" style="edgeStyle=orthogonalEdgeStyle;rounded=0;orthogonalLoop=1;jettySize=auto;html=1;entryX=0;entryY=0.5;entryDx=0;entryDy=0;entryPerimeter=0;" edge="1" parent="1" source="c3DOi_8PHYNx_k1MSMey-5" target="c3DOi_8PHYNx_k1MSMey-3">
          <mxGeometry relative="1" as="geometry" />
        </mxCell>
        <mxCell id="c3DOi_8PHYNx_k1MSMey-5" value="xml" style="shape=document;whiteSpace=wrap;html=1;boundedLbl=1;" vertex="1" parent="1">
          <mxGeometry x="470" y="50" width="120" height="80" as="geometry" />
        </mxCell>
        <mxCell id="c3DOi_8PHYNx_k1MSMey-11" style="edgeStyle=orthogonalEdgeStyle;rounded=0;orthogonalLoop=1;jettySize=auto;html=1;entryX=0.5;entryY=0;entryDx=0;entryDy=0;" edge="1" parent="1" source="c3DOi_8PHYNx_k1MSMey-9" target="hIugXaNikR5vp4GkvQ3V-4">
          <mxGeometry relative="1" as="geometry" />
        </mxCell>
        <mxCell id="c3DOi_8PHYNx_k1MSMey-9" value="ValidatePerson" style="shape=process;whiteSpace=wrap;html=1;backgroundOutline=1;" vertex="1" parent="1">
          <mxGeometry x="215" y="250" width="120" height="60" as="geometry" />
        </mxCell>
        <mxCell id="c3DOi_8PHYNx_k1MSMey-13" value="接口参数校验" style="shape=process;whiteSpace=wrap;html=1;backgroundOutline=1;" vertex="1" parent="1">
          <mxGeometry x="215" y="60" width="120" height="60" as="geometry" />
        </mxCell>
        <mxCell id="c3DOi_8PHYNx_k1MSMey-14" value="" style="shape=process;whiteSpace=wrap;html=1;backgroundOutline=1;" vertex="1" parent="1">
          <mxGeometry x="220" y="460" width="120" height="60" as="geometry" />
        </mxCell>
        <mxCell id="c3DOi_8PHYNx_k1MSMey-16" value="FraudEventApi" style="rounded=1;whiteSpace=wrap;html=1;" vertex="1" parent="1">
          <mxGeometry x="700" y="540" width="120" height="60" as="geometry" />
        </mxCell>
      </root>
    </mxGraphModel>
  </diagram>
</mxfile>
